#tb 0: 1/25
0,          0,          0,        1,  3110400, 0xcfb2f251
0,          1,          1,        1,  3110400, 0xc2621936
0,          2,          2,        1,  3110400, 0x5cb42788
0,          3,          3,        1,  3110400, 0x5a3144a5
0,          4,          4,        1,  3110400, 0x59eca534
